<svg xmlns="http://www.w3.org/2000/svg" width="800" height="200" viewBox="0 0 800 200">
  <defs>
    <linearGradient id="stage" x1="0" y1="0" x2="0" y2="1">
      <stop offset="0%" stop-color="#16294a"/>
      <stop offset="100%" stop-color="#0b1220"/>
    </linearGradient>
    <linearGradient id="flame" x1="0" y1="0" x2="1" y2="0">
      <stop offset="0%" stop-color="#e2218a"/>
      <stop offset="52%" stop-color="#ef5d52"/>
      <stop offset="100%" stop-color="#f5921e"/>
    </linearGradient>
    <pattern id="grid" width="32" height="32" patternUnits="userSpaceOnUse">
      <path d="M32 0 L0 0 0 32" fill="none" stroke="#ffffff" stroke-opacity="0.05" stroke-width="1"/>
    </pattern>
  </defs>
  <rect width="800" height="200" fill="url(#stage)"/>
  <rect width="800" height="200" fill="url(#grid)"/>
  <rect x="256" y="116" width="290" height="12" rx="4" fill="#8fa2bd"/>
  <path d="M282 128 L282 184 M520 128 L520 184" stroke="#8fa2bd" stroke-width="8"
        stroke-linecap="round"/>
  <rect x="298" y="72" width="64" height="44" rx="6" fill="#1668c4" opacity="0.85"/>
  <rect x="378" y="56" width="58" height="60" rx="6" fill="#11b075" opacity="0.85"/>
  <circle cx="492" cy="94" r="22" fill="#f5a81c" opacity="0.9"/>
  <circle cx="346" cy="38" r="26" fill="#e2218a"/>
  <path d="M332 58 L324 92 L346 80 L368 92 L360 58 Z" fill="#ef5d52"/>
  <text x="346" y="46" text-anchor="middle" font-family="Trebuchet MS, Arial Rounded MT Bold, Verdana, sans-serif" font-size="22"
        font-weight="bold" fill="#ffffff">1</text>
  <circle cx="492" cy="38" r="24" fill="none" stroke="#ffffff" stroke-width="4" opacity="0.75"/>
  <path d="M492 22 L492 38 L504 46" stroke="#ffffff" stroke-width="4"
        stroke-linecap="round" fill="none" opacity="0.75"/>
  <rect x="0" y="194" width="800" height="6" fill="url(#flame)"/>
</svg>
